<svg width="32" height="32" viewBox="0 0 32 32" fill="none" xmlns="http://www.w3.org/2000/svg">
  <!-- Background -->
  <rect width="32" height="32" fill="#8BA9B5" rx="4"/>

  <!-- Ground line -->
  <line x1="6" y1="28" x2="26" y2="28" stroke="white" stroke-width="2" stroke-linecap="round"/>

  <!-- Main trunk - tall central column -->
  <path d="M14 28 L14 7 C14 5.5 14.5 4 16 4 C17.5 4 18 5.5 18 7 L18 28"
        stroke="white"
        stroke-width="2.5"
        fill="none"
        stroke-linecap="round"
        stroke-linejoin="round"/>

  <!-- Left arm - lower positioned -->
  <path d="M14 18 L11 18 C9 18 8 17 8 15 L8 12 C8 10.5 8.5 10 9.5 10 C10.5 10 11 10.5 11 12 L11 16"
        stroke="white"
        stroke-width="2.5"
        fill="none"
        stroke-linecap="round"
        stroke-linejoin="round"/>

  <!-- Right arm - higher positioned -->
  <path d="M18 14 L21 14 C23 14 24 13 24 11 L24 8 C24 6.5 23.5 6 22.5 6 C21.5 6 21 6.5 21 8 L21 12"
        stroke="white"
        stroke-width="2.5"
        fill="none"
        stroke-linecap="round"
        stroke-linejoin="round"/>

  <!-- Vertical ridges on main trunk for detail -->
  <line x1="15" y1="8" x2="15" y2="26" stroke="white" stroke-width="0.5" opacity="0.3"/>
  <line x1="17" y1="8" x2="17" y2="26" stroke="white" stroke-width="0.5" opacity="0.3"/>
</svg>
